<svg version="1.0" xmlns="http://www.w3.org/2000/svg"
 width="927.000000pt" height="1280.000000pt" viewBox="0 0 927.000000 1280.000000"
 preserveAspectRatio="xMidYMid meet">
<metadata>
Created by potrace 1.15, written by Peter Selinger 2001-2017
</metadata>
<g transform="translate(0.000000,1280.000000) scale(0.100000,-0.100000)"
fill="#000000" stroke="none">
<path d="M4200 12765 c-52 -54 -124 -88 -173 -82 -21 3 -49 15 -62 27 -29 27
-35 26 -171 -55 -124 -75 -191 -102 -268 -111 -109 -13 -134 17 -75 89 17 21
29 41 26 44 -15 14 -60 -11 -87 -49 -34 -46 -37 -79 -15 -152 24 -78 21 -93
-22 -112 l-38 -16 25 -10 c45 -18 55 -25 58 -41 3 -16 -2 -22 -72 -80 -40 -32
-66 -79 -66 -118 0 -11 -22 -48 -50 -81 -56 -67 -65 -95 -26 -76 54 24 70 -14
42 -105 -8 -26 -12 -57 -9 -68 4 -15 -1 -27 -18 -40 -21 -16 -24 -25 -22 -79
2 -90 57 -246 97 -279 38 -32 11 -27 -50 9 -89 52 -245 114 -379 150 l-109 29
-214 -25 -213 -25 -122 -56 c-345 -157 -615 -355 -869 -637 -57 -64 -108 -111
-121 -113 -12 -2 -34 -16 -50 -31 -79 -76 -245 -329 -289 -442 -19 -50 -26
-57 -73 -78 -29 -13 -88 -52 -131 -87 -69 -55 -82 -70 -101 -121 -35 -95 -46
-151 -41 -217 8 -90 27 -123 78 -131 23 -4 85 -29 138 -56 131 -66 147 -71
220 -71 90 0 149 21 302 106 161 89 273 135 333 135 42 0 44 -2 75 -57 l33
-57 -61 -135 -61 -135 -49 -325 c-27 -179 -57 -366 -67 -416 -22 -114 -25
-468 -5 -560 28 -126 74 -256 130 -367 l58 -115 -52 -56 c-159 -171 -223 -398
-195 -694 43 -465 14 -831 -104 -1319 l-36 -150 29 -158 c26 -140 32 -161 55
-180 25 -20 27 -29 37 -151 13 -150 33 -300 56 -400 11 -50 14 -96 9 -165 -8
-128 7 -274 32 -308 10 -15 45 -40 76 -56 54 -27 69 -29 218 -36 88 -4 163
-10 166 -14 7 -7 -96 -328 -148 -458 -53 -133 -154 -334 -254 -503 -45 -77
-101 -172 -123 -211 -56 -97 -192 -269 -298 -379 -59 -61 -91 -103 -101 -132
-8 -24 -17 -43 -19 -43 -3 0 -19 10 -35 22 l-31 23 -23 -27 c-24 -28 -39 -86
-50 -194 l-7 -61 -56 -18 c-31 -9 -133 -56 -227 -103 -146 -74 -181 -96 -249
-160 -43 -41 -120 -107 -170 -147 -134 -107 -131 -102 -131 -204 1 -76 4 -92
30 -139 53 -97 173 -155 427 -207 69 -14 143 -25 165 -25 160 0 320 88 404
223 44 70 56 84 184 199 61 55 127 116 147 136 l38 37 -10 -35 c-39 -136 -32
-338 17 -495 155 -497 703 -766 1191 -585 349 130 580 446 599 820 23 468
-310 875 -780 950 -148 24 -336 1 -486 -59 l-54 -22 27 33 c15 18 50 69 79
113 237 367 404 595 587 801 l104 118 13 -70 c13 -72 40 -144 54 -144 23 0 30
44 20 123 -17 126 -15 160 13 186 l24 23 31 -29 c26 -23 34 -42 49 -115 19
-93 32 -121 32 -70 0 59 45 162 70 162 4 0 61 -72 126 -159 71 -96 129 -164
144 -170 45 -17 87 -20 126 -10 111 31 151 151 141 426 -8 219 -54 371 -144
477 -25 29 -50 72 -59 101 -29 94 -46 266 -47 465 l-1 195 34 75 c41 91 65
118 245 273 77 66 160 139 185 162 43 40 51 44 156 63 180 33 296 98 368 206
35 53 36 57 36 150 l0 95 -47 14 -48 14 68 69 c37 37 67 71 67 75 0 4 -9 36
-20 71 -29 92 -28 94 37 113 75 22 126 48 190 97 43 33 56 50 69 93 16 51 16
58 -4 162 -31 157 -44 313 -37 429 6 86 4 111 -15 180 -12 43 -33 99 -46 123
-29 52 -28 50 -6 44 15 -3 20 8 35 69 24 102 62 174 170 318 152 204 132 120
167 716 20 337 30 594 29 734 -2 192 0 222 19 277 26 80 80 166 99 159 8 -4
68 -6 133 -6 l119 0 137 -157 c76 -87 141 -159 145 -161 5 -2 36 -48 70 -103
52 -85 73 -109 140 -160 142 -108 269 -181 434 -250 50 -20 147 -62 216 -92
146 -65 306 -114 617 -192 248 -62 368 -98 518 -156 l101 -39 58 -108 c68
-124 131 -210 183 -246 50 -34 107 -44 302 -50 91 -4 215 -12 277 -18 105 -11
114 -11 133 7 21 19 26 50 12 72 -5 7 -33 22 -63 32 l-54 20 95 0 c118 1 254
-29 432 -93 137 -50 163 -54 172 -30 10 26 -10 50 -102 120 -48 37 -91 71 -95
74 -4 4 41 -6 100 -22 124 -32 146 -34 163 -13 27 32 4 59 -91 105 l-91 45 42
7 c76 13 113 56 76 87 -14 12 -529 132 -776 181 -510 102 -472 91 -652 186
-428 227 -748 427 -1081 677 -92 69 -196 139 -232 156 -65 31 -177 64 -258 76
l-45 7 0 121 c-1 164 -30 335 -65 376 -113 130 -388 459 -449 536 -43 55 -90
112 -104 127 -14 16 -167 97 -372 198 -214 106 -381 196 -437 234 -57 40 -108
67 -140 75 -27 6 -73 18 -102 27 l-52 14 4 55 c5 69 14 86 90 165 66 69 110
140 198 315 54 109 56 111 121 149 82 48 83 65 3 84 -65 16 -77 31 -53 67 22
33 20 45 -7 45 -42 0 -78 61 -58 98 6 11 47 43 91 71 107 69 107 82 -1 60 -40
-8 -66 -8 -97 0 -59 16 -63 42 -16 112 60 88 114 208 114 253 l0 39 -23 -44
c-28 -53 -68 -80 -94 -63 -15 10 -18 24 -15 85 l3 74 -20 -31 c-25 -41 -68
-74 -96 -74 -32 0 -107 61 -160 130 -30 39 -60 66 -88 78 -61 28 -81 55 -87
119 l-5 54 -35 -36z"/>
</g>
</svg>
